<?xml version="1.0" standalone="no"?>
<!DOCTYPE svg PUBLIC "-//W3C//DTD SVG 20010904//EN"
 "http://www.w3.org/TR/2001/REC-SVG-20010904/DTD/svg10.dtd">
<svg version="1.0" xmlns="http://www.w3.org/2000/svg"
 width="1405.000000pt" height="1243.000000pt" viewBox="0 0 1405.000000 1243.000000"
 preserveAspectRatio="xMidYMid meet">

<g transform="translate(0.000000,1243.000000) scale(0.100000,-0.100000)"
fill="#000000" stroke="none">
<path d="M6711 12414 c-337 -47 -1375 -377 -2076 -659 -990 -398 -1938 -913
-2425 -1319 -389 -323 -593 -600 -673 -913 -20 -82 -22 -108 -21 -363 4 -637
53 -999 299 -2217 41 -205 75 -382 75 -394 0 -42 -34 -77 -163 -165 -364 -249
-589 -435 -893 -738 -233 -234 -370 -386 -573 -641 -236 -295 -268 -355 -259
-486 6 -78 46 -173 98 -233 40 -45 115 -85 182 -95 72 -12 357 5 606 34 118
15 216 24 218 22 5 -5 -23 -192 -57 -377 -58 -324 -1 -534 169 -617 49 -24 69
-28 142 -28 129 1 207 32 442 176 70 43 137 83 147 89 18 9 37 -12 183 -206
90 -118 175 -231 191 -251 34 -45 50 -102 41 -151 -3 -20 -23 -107 -44 -192
-165 -666 -172 -818 -40 -951 101 -103 207 -124 450 -89 268 38 501 103 784
216 87 35 173 64 190 64 49 0 93 -35 227 -180 380 -413 784 -780 1196 -1089
231 -173 354 -250 578 -361 275 -136 529 -219 834 -273 111 -19 161 -22 431
-22 272 0 319 3 434 23 495 87 907 265 1353 586 390 280 719 570 1068 941 240
255 287 299 355 334 53 26 75 31 134 31 90 0 122 -9 276 -77 259 -115 513
-182 767 -204 208 -18 304 9 401 116 66 72 92 149 92 275 0 77 -11 134 -100
488 -54 221 -102 424 -106 451 -5 42 -2 56 20 98 36 65 328 475 342 480 6 2
86 -44 179 -102 223 -140 276 -169 367 -199 169 -57 322 -12 406 121 71 113
78 232 31 550 -16 115 -34 226 -39 248 -5 22 -10 49 -10 59 0 22 -31 23 455
-20 334 -29 385 -27 478 24 119 65 197 234 169 368 -24 118 -84 208 -350 527
-449 539 -892 949 -1383 1278 -104 70 -119 83 -134 123 -21 54 -20 57 91 641
165 862 226 1320 240 1785 12 366 -31 599 -155 855 -91 187 -203 321 -436 525
-176 154 -281 234 -465 357 -821 546 -1761 987 -2950 1383 -591 197 -950 299
-1175 336 -142 22 -480 27 -614 8z m652 -1990 c359 -44 687 -139 992 -289 522
-256 923 -664 1200 -1223 147 -295 244 -594 291 -897 13 -81 18 -178 19 -365
1 -171 5 -262 13 -276 7 -14 51 -38 124 -69 345 -143 769 -348 1088 -526 285
-158 577 -338 609 -375 39 -44 40 -83 2 -149 -240 -426 -295 -510 -400 -616
-103 -102 -188 -155 -330 -203 -109 -37 -146 -62 -155 -105 -14 -65 -206
-2086 -206 -2166 0 -30 3 -55 8 -55 13 1 135 161 229 302 185 277 325 564 478
982 l63 169 193 -180 c261 -243 242 -220 237 -291 -3 -50 -19 -88 -95 -243
-299 -606 -690 -972 -1364 -1274 -68 -30 -126 -55 -131 -55 -4 0 -8 39 -8 88
l-1 87 -64 -127 c-118 -237 -259 -430 -479 -656 -134 -138 -415 -403 -612
-579 -203 -180 -649 -522 -800 -614 -794 -479 -1896 -457 -2662 55 -406 271
-1038 828 -1430 1261 -175 193 -233 269 -337 445 l-80 134 -11 -39 c-6 -21
-15 -40 -20 -42 -14 -5 -184 67 -314 132 -281 141 -520 314 -726 526 -190 197
-333 400 -460 655 -96 193 -99 217 -33 277 158 146 405 367 412 370 5 1 43
-83 86 -188 153 -376 283 -632 440 -862 146 -215 204 -278 225 -245 9 15 -24
485 -60 842 -49 495 -133 1238 -144 1280 -15 56 -36 77 -113 116 -221 110
-365 266 -588 632 -52 86 -105 173 -117 192 -24 38 -28 80 -12 111 12 22 150
116 370 251 426 262 872 484 1315 654 170 65 212 93 245 159 24 48 25 61 32
300 7 276 26 431 77 632 113 447 336 836 695 1210 500 522 1074 807 1734 863
137 11 418 4 575 -16z"/>
<path d="M6910 9165 c-8 -2 -49 -9 -90 -15 -177 -29 -405 -124 -577 -242 -414
-284 -636 -646 -682 -1113 -5 -49 -8 -91 -6 -93 1 -2 63 8 136 22 334 64 666
101 1056 118 520 23 1149 -25 1697 -128 71 -13 135 -24 142 -24 15 0 13 21
-17 176 -79 416 -264 734 -562 965 -216 167 -512 292 -780 328 -70 10 -278 13
-317 6z"/>
</g>
</svg>
